<svg width="18" height="17" viewBox="0 0 18 17" xmlns="http://www.w3.org/2000/svg">
  <g fill="#88429D" fill-rule="evenodd">
    <path d="M17.308 8.8a.685.685 0 0 0-.693.678v6.062a.031.031 0 0 1-.031.03H1.416a.031.031 0 0 1-.031-.03V9.478A.685.685 0 0 0 .692 8.8.685.685 0 0 0 0 9.478v6.1c0 .744.617 1.347 1.378 1.347h15.244c.761 0 1.378-.603 1.378-1.347v-6.1a.685.685 0 0 0-.692-.677"/>
    <path d="M9 13.54a.7.7 0 0 1-.49-.198L4.357 9.28a.667.667 0 0 1 0-.958.704.704 0 0 1 .979 0l2.972 2.906V.677C8.308.303 8.618 0 9 0c.382 0 .692.303.692.677v12.186c0 .274-.168.52-.427.625A.703.703 0 0 1 9 13.54"/>
    <path d="M9 13.54a.698.698 0 0 1-.49-.198.667.667 0 0 1 0-.958l4.154-4.062a.704.704 0 0 1 .98 0c.27.265.27.693 0 .958L9.49 13.342a.698.698 0 0 1-.49.198"/>
  </g>
</svg>
