<?xml version="1.0" encoding="UTF-8"?>
<svg width="22px" height="22px" viewBox="0 0 22 22" version="1.1" xmlns="http://www.w3.org/2000/svg" xmlns:xlink="http://www.w3.org/1999/xlink">
    <!-- Generator: Sketch 54.1 (76490) - https://sketchapp.com -->
    <title>Icons</title>
    <desc>Created with Sketch.</desc>
    <g id="IRL-Podcast-Season-5-" stroke="none" stroke-width="1" fill="none" fill-rule="evenodd">
        <g id="icon_instagram" transform="translate(-1.000000, -1.000000)" fill="#20123A">
            <g id="social-icons" transform="translate(1.000000, 1.000000)">
                <g id="Icons-/-Instagram">
                    <path d="M11.0000218,0 C13.9874206,0 14.362019,0.0126627249 15.5352859,0.0661954863 C16.7061077,0.119597254 17.5057369,0.305564652 18.205418,0.577507587 C18.9287652,0.858576416 19.5422088,1.23470301 20.1537747,1.8462253 C20.765297,2.45779125 21.1414236,3.07123477 21.4225361,3.79458202 C21.6944353,4.49426307 21.8804027,5.29389232 21.9338045,6.46471407 C21.9873373,7.63798103 22,8.01257937 22,11.0000218 C22,13.9874206 21.9873373,14.362019 21.9338045,15.5352859 C21.8804027,16.7061077 21.6944353,17.5057369 21.4225361,18.205418 C21.1414236,18.9287652 20.765297,19.5422088 20.1537747,20.1537747 C19.5422088,20.765297 18.9287652,21.1414236 18.205418,21.4225361 C17.5057369,21.6944353 16.7061077,21.8804027 15.5352859,21.9338045 C14.362019,21.9873373 13.9874206,22 11.0000218,22 C8.01257937,22 7.63798103,21.9873373 6.46471407,21.9338045 C5.29389232,21.8804027 4.49426307,21.6944353 3.79458202,21.4225361 C3.07123477,21.1414236 2.45779125,20.765297 1.8462253,20.1537747 C1.23470301,19.5422088 0.858576416,18.9287652 0.577507587,18.205418 C0.305564652,17.5057369 0.119597254,16.7061077 0.0661954863,15.5352859 C0.0126627249,14.362019 0,13.9874206 0,11.0000218 C0,8.01257937 0.0126627249,7.63798103 0.0661954863,6.46471407 C0.119597254,5.29389232 0.305564652,4.49426307 0.577507587,3.79458202 C0.858576416,3.07123477 1.23470301,2.45779125 1.8462253,1.8462253 C2.45779125,1.23470301 3.07123477,0.858576416 3.79458202,0.577507587 C4.49426307,0.305564652 5.29389232,0.119597254 6.46471407,0.0661954863 C7.63798103,0.0126627249 8.01257937,0 11.0000218,0 Z M11.0000218,1.98197844 C8.06288095,1.98197844 7.71496166,1.99320024 6.55505606,2.04612169 C5.48256692,2.09502601 4.90012524,2.2742254 4.51251486,2.42486816 C3.9990632,2.62441524 3.63263014,2.86278012 3.24772696,3.24772696 C2.86278012,3.63263014 2.62441524,3.9990632 2.42486816,4.51251486 C2.2742254,4.90012524 2.09502601,5.48256692 2.04612169,6.55505606 C1.99320024,7.71496166 1.98197844,8.06288095 1.98197844,11.0000218 C1.98197844,13.9371191 1.99320024,14.2850383 2.04612169,15.4449439 C2.09502601,16.5174331 2.2742254,17.0998748 2.42486816,17.4874851 C2.62441524,18.0009368 2.86282379,18.3673699 3.24772696,18.752273 C3.63263014,19.1372199 3.9990632,19.3755848 4.51251486,19.5751318 C4.90012524,19.7257746 5.48256692,19.904974 6.55505606,19.9538783 C7.71483067,20.0067998 8.06266263,20.0180216 11.0000218,20.0180216 C13.9373374,20.0180216 14.285213,20.0067998 15.4449439,19.9538783 C16.5174331,19.904974 17.0998748,19.7257746 17.4874851,19.5751318 C18.0009368,19.3755848 18.3673699,19.1372199 18.752273,18.752273 C19.1372199,18.3673699 19.3755848,18.0009368 19.5751318,17.4874851 C19.7257746,17.0998748 19.904974,16.5174331 19.9538783,15.4449439 C20.0067998,14.2850383 20.0180216,13.9371191 20.0180216,11.0000218 C20.0180216,8.06288095 20.0067998,7.71496166 19.9538783,6.55505606 C19.904974,5.48256692 19.7257746,4.90012524 19.5751318,4.51251486 C19.3755848,3.9990632 19.1372199,3.63263014 18.752273,3.24772696 C18.3673699,2.86278012 18.0009368,2.62441524 17.4874851,2.42486816 C17.0998748,2.2742254 16.5174331,2.09502601 15.4449439,2.04612169 C14.2850383,1.99320024 13.9371191,1.98197844 11.0000218,1.98197844 Z M11.0000218,5.35135489 C14.1196806,5.35135489 16.6486451,7.88031939 16.6486451,11.0000218 C16.6486451,14.1196806 14.1196806,16.6486451 11.0000218,16.6486451 C7.88031939,16.6486451 5.35135489,14.1196806 5.35135489,11.0000218 C5.35135489,7.88031939 7.88031939,5.35135489 11.0000218,5.35135489 Z M11.0000218,14.6666667 C13.0250535,14.6666667 14.6666667,13.0250535 14.6666667,11.0000218 C14.6666667,8.97494646 13.0250535,7.33333333 11.0000218,7.33333333 C8.97494646,7.33333333 7.33333333,8.97494646 7.33333333,11.0000218 C7.33333333,13.0250535 8.97494646,14.6666667 11.0000218,14.6666667 Z M18.1918383,5.12818528 C18.1918383,5.85720892 17.6008384,6.44816519 16.8718147,6.44816519 C16.1428347,6.44816519 15.5518348,5.85720892 15.5518348,5.12818528 C15.5518348,4.39916164 16.1428347,3.8081617 16.8718147,3.8081617 C17.6008384,3.8081617 18.1918383,4.39916164 18.1918383,5.12818528 Z" id="Icons"></path>
                </g>
            </g>
        </g>
    </g>
</svg>