<?xml version="1.0" encoding="UTF-8" standalone="no"?>
<svg
   xmlns:dc="http://purl.org/dc/elements/1.1/"
   xmlns:cc="http://creativecommons.org/ns#"
   xmlns:rdf="http://www.w3.org/1999/02/22-rdf-syntax-ns#"
   xmlns:svg="http://www.w3.org/2000/svg"
   xmlns="http://www.w3.org/2000/svg"
   viewBox="0 0 144 192"
   height="192"
   width="144"
   xml:space="preserve"
   id="svg2"
   version="1.1"><metadata
     id="metadata8"><rdf:RDF><cc:Work
         rdf:about=""><dc:format>image/svg+xml</dc:format><dc:type
           rdf:resource="http://purl.org/dc/dcmitype/StillImage" /></cc:Work></rdf:RDF></metadata><defs
     id="defs6" /><g
     transform="matrix(1.3333333,0,0,-1.3333333,0,192)"
     id="g10"><g
       transform="scale(0.1)"
       id="g12"><path
         id="path14"
         style="fill:#7fd2aa;fill-opacity:1;fill-rule:nonzero;stroke:none"
         d="m 693.793,434.988 h -1.297 c -63.945,0 -120.098,7.602 -166.183,23.391 v 112.402 c 13.085,-4.218 27.968,-6.316 44.464,-6.316 67.325,0 102.293,55.664 102.293,156.594 v 108.75 c 0,100.945 -34.968,156.617 -108.711,156.617 -73.828,0 -108.777,-49.18 -108.777,-150.164 V 182.582 H 287.324 v 919.088 h 137.184 l 16.84,-90.64 c 23.324,64.72 91.91,104.86 174.769,104.86 146.301,0 226.535,-113.79 226.535,-304.093 v -69.879 c 0,-76.359 -10.371,-127.008 -56.984,-176.195 162.344,16.472 294.352,83.547 294.352,345.183 v 5.563 h -0.41 C 1071.4,1231.93 854.059,1440 539.309,1440 224.688,1440 8.55859,1231.93 0.429688,916.469 H 0 V 542.051 C 0,216.191 218.617,0 539.309,0 854.117,0 1079.61,205.219 1079.61,523.66 l 0.41,71.535 v 0 C 1006.43,490.84 874.762,434.988 693.793,434.988" /></g></g></svg>