<?xml version="1.0" encoding="UTF-8"?>
<svg width="23px" height="29px" viewBox="0 0 23 29" version="1.1" xmlns="http://www.w3.org/2000/svg" xmlns:xlink="http://www.w3.org/1999/xlink">
    <g id="Page-1" stroke="none" stroke-width="1" fill="none" fill-rule="evenodd">
        <g id="Desktop-HD-Copy-44" transform="translate(-919.000000, -944.000000)" fill-rule="nonzero" fill="#88429D">
            <g id="noun_1044724_cc" transform="translate(919.000000, 944.000000)">
                <g id="Group">
                    <path d="M20.4560606,8.83809524 L14.2878788,8.83809524 L14.2878788,10.5642857 L20.4560606,10.5642857 C20.8045455,10.5642857 21.0833333,10.8404762 21.0833333,11.1511905 L21.0833333,26.5142857 C21.0833333,26.8595238 20.8045455,27.1011905 20.4560606,27.1011905 L2.54393939,27.1011905 C2.19545455,27.1011905 1.91666667,26.825 1.91666667,26.5142857 L1.91666667,11.1857143 C1.91666667,10.8404762 2.19545455,10.5988095 2.54393939,10.5988095 L8.01515152,10.5988095 L8.01515152,8.87261905 L2.54393939,8.87261905 C1.25454545,8.87261905 0.174242424,9.90833333 0.174242424,11.1857143 L0.174242424,26.5488095 C0.174242424,27.8261905 1.21969697,28.8619048 2.54393939,28.8619048 L20.4560606,28.8619048 C21.7454545,28.8619048 22.8257576,27.8261905 22.8257576,26.5488095 L22.8257576,11.1857143 C22.8257576,9.87380952 21.780303,8.83809524 20.4560606,8.83809524 Z" id="Shape"></path>
                    <polygon id="Shape" points="10.6287879 2.93452381 10.6287879 20.6797619 12.3712121 20.6797619 12.3712121 2.93452381 15.6818182 5.35119048 16.7272727 3.9702381 11.5 0.138095238 6.27272727 3.9702381 7.31818182 5.35119048"></polygon>
                </g>
            </g>
        </g>
    </g>
</svg>
