<?xml version="1.0" encoding="UTF-8"?>
<svg width="24px" height="20px" viewBox="0 0 24 20" version="1.1" xmlns="http://www.w3.org/2000/svg" xmlns:xlink="http://www.w3.org/1999/xlink">
    <!-- Generator: Sketch 54.1 (76490) - https://sketchapp.com -->
    <title>Icons</title>
    <desc>Created with Sketch.</desc>
    <g id="IRL-Podcast-Season-5-" stroke="none" stroke-width="1" fill="none" fill-rule="evenodd">
        <g id="icon_twitter" transform="translate(0.000000, -2.000000)" fill="#20123A">
            <g id="Icons-/-dock-undock-Copy" transform="translate(0.000000, 2.000000)">
                <path d="M15.7515535,17.1877196 C19.5491521,14.4310601 21.55776,9.88390264 21.55776,5.74077317 C21.55776,5.52766858 21.55776,5.31552392 21.54336,5.1043392 C22.5070381,4.40734403 23.3389013,3.54433624 24,2.55572352 C23.1013239,2.95390442 22.1479961,3.21503134 21.17184,3.33038749 C22.1997542,2.71505477 22.9690786,1.74724309 23.33664,0.607064447 C22.3700712,1.18058007 21.3126203,1.58476528 20.20992,1.80217801 C18.6835995,0.17931389 16.2582906,-0.217887811 14.2939673,0.833300816 C12.329644,1.88448944 11.314824,4.12264289 11.81856,6.29273325 C7.85941991,6.09426716 4.17069675,4.22439318 1.6704,1.14846529 C0.363477846,3.39820152 1.03102837,6.27627954 3.19488,7.72110995 C2.41127155,7.69788687 1.6447482,7.48651556 0.96,7.10483452 C0.96,7.12499306 0.96,7.14611153 0.96,7.16723001 C0.960641408,9.51098975 2.61288143,11.5296683 4.9104,11.9937609 C4.18547481,12.1914491 3.42487736,12.2203471 2.68704,12.0782348 C3.33211001,14.0839357 5.18071158,15.4579429 7.28736,15.4975075 C5.54374564,16.8677431 3.38981713,17.6115893 1.17216,17.6093548 C0.780387426,17.6086028 0.388995903,17.5848838 0,17.53832 C2.25181051,18.9832809 4.87191687,19.7497283 7.54752,19.7461603 C10.8371033,19.75 13.5853676,18.7601442 15.7515535,17.1877196 Z" id="Icons"></path>
            </g>
        </g>
    </g>
</svg>